<?xml version="1.0" encoding="utf-8"?>
<!-- Generator: Adobe Illustrator 15.1.0, SVG Export Plug-In . SVG Version: 6.00 Build 0)  -->
<!DOCTYPE svg PUBLIC "-//W3C//DTD SVG 1.1//EN" "http://www.w3.org/Graphics/SVG/1.1/DTD/svg11.dtd">
<svg version="1.1" id="レイヤー_1" xmlns="http://www.w3.org/2000/svg" xmlns:xlink="http://www.w3.org/1999/xlink" x="0px"
	 y="0px" width="77.5px" height="95px" viewBox="0 0 77.5 95" enable-background="new 0 0 77.5 95" xml:space="preserve">
<g>
	<g>
		<path fill="#FFFFFF" d="M37.982,4.232c0.257-2.328,0.677-2.328,0.933,0l2.538,23.029c0.257,2.328,2.371,4.442,4.699,4.699
			l23.029,2.539c2.328,0.256,2.328,0.676,0,0.933L46.152,37.97c-2.328,0.256-4.442,2.371-4.699,4.699l-2.538,23.029
			c-0.256,2.328-0.676,2.328-0.933,0l-2.538-23.029c-0.257-2.328-2.372-4.442-4.699-4.699L7.717,35.431
			c-2.328-0.256-2.328-0.676,0-0.933l23.028-2.539c2.328-0.256,4.442-2.371,4.699-4.699L37.982,4.232z"/>
	</g>
	<g>
		<path fill="#FFFFFF" d="M26.311,52.145c0-9.489,5.435-17.18,12.138-17.18c-6.703,0-12.138-7.691-12.138-17.179
			c0-9.482,5.429-17.17,12.127-17.179C25.036,0.616,14.174,15.995,14.174,34.965c0,18.971,10.862,34.348,24.264,34.357
			C31.739,69.314,26.311,61.627,26.311,52.145z"/>
		<path fill="#FFFFFF" d="M62.724,34.965c0-18.97-10.862-34.35-24.264-34.358c6.698,0.009,12.127,7.696,12.127,17.179
			c0,9.488-5.435,17.179-12.139,17.179c6.704,0,12.139,7.691,12.139,17.18c0,9.482-5.429,17.17-12.127,17.178
			C51.861,69.314,62.724,53.936,62.724,34.965z"/>
		<polygon fill="#231815" points="38.46,0.607 38.448,0.606 38.438,0.607 38.448,0.607 		"/>
		<polygon fill="#231815" points="38.438,69.322 38.448,69.322 38.46,69.322 38.448,69.322 		"/>
	</g>
	<g>
		<g>
			<path fill="#FFFFFF" d="M38.448,2.41c17.951,0,32.556,14.604,32.556,32.555S56.399,67.52,38.448,67.52
				c-17.951,0-32.555-14.604-32.555-32.555S20.498,2.41,38.448,2.41 M38.448,0.607c-18.975,0-34.357,15.382-34.357,34.358
				c0,18.975,15.383,34.357,34.357,34.357c18.976,0,34.358-15.383,34.358-34.357C72.807,15.989,57.424,0.607,38.448,0.607
				L38.448,0.607z"/>
		</g>
	</g>
	<g>
		<path fill="#FFFFFF" d="M1.006,89.966l0.381-5.368l0.176-3.914l0.049-1.74c0.013-0.505,0.02-0.99,0.02-1.455l-0.01-0.944
			c1.03,0.014,1.801,0.02,2.313,0.02c0.4,0,1.097-0.006,2.087-0.02c-0.155,1.882-0.256,3.543-0.301,4.985h5.353
			c0.032-0.538,0.063-1.266,0.093-2.183c0.029-0.916,0.044-1.542,0.044-1.877c0-0.177-0.007-0.485-0.02-0.926l2.327,0.02
			c0.242,0,0.93-0.006,2.062-0.02c-0.233,3.369-0.384,5.875-0.448,7.518c-0.065,1.642-0.098,3.61-0.098,5.904l-2.146-0.02
			c-0.322,0-1.09,0.007-2.304,0.02c0.164-1.56,0.275-3.376,0.335-5.447H5.562l-0.165,5.447l-2.284-0.02
			C2.823,89.946,2.121,89.953,1.006,89.966z"/>
		<path fill="#FFFFFF" d="M17.438,89.966c0.164-1.691,0.284-3.107,0.359-4.248c0.076-1.141,0.151-2.656,0.228-4.547
			c0.075-1.892,0.113-3.146,0.113-3.762l-0.01-0.865c1.546,0.014,3.417,0.02,5.613,0.02c2.025,0,3.812-0.006,5.358-0.02l-0.02,0.323
			c-0.007,0.078-0.023,0.363-0.05,0.853l-0.059,1.068c-0.014,0.229-0.02,0.461-0.02,0.696c-1.266-0.053-2.327-0.079-3.187-0.079
			c-0.943,0-1.581,0.002-1.912,0.005c-0.331,0.004-0.848,0.019-1.549,0.044l-0.119,2.262c0.773,0.02,1.675,0.03,2.704,0.03
			c0.367,0,1.345-0.023,2.932-0.069c-0.065,0.839-0.128,1.839-0.187,2.999c-1.134-0.013-2.005-0.02-2.614-0.02
			c-0.904,0-1.917,0.023-3.037,0.068l-0.117,2.39h1.131c0.334,0,1.024-0.01,2.073-0.029l2.034-0.049
			c0.301-0.007,0.806-0.033,1.513-0.079c-0.078,0.971-0.144,1.974-0.196,3.009c-1.6-0.013-3.354-0.02-5.261-0.02l-4.326,0.01
			L17.438,89.966z"/>
		<path fill="#FFFFFF" d="M31.313,76.544c1.022,0.014,1.743,0.02,2.162,0.02c0.524,0,1.223-0.006,2.094-0.02l-0.293,4.179
			c-0.059,0.787-0.103,1.524-0.131,2.213c-0.029,0.688-0.044,1.164-0.044,1.426c0,0.498,0.036,0.914,0.107,1.249
			c0.072,0.334,0.203,0.617,0.394,0.851c0.189,0.232,0.453,0.408,0.791,0.525c0.337,0.118,0.688,0.178,1.056,0.178
			c0.314,0,0.609-0.043,0.885-0.129c0.216-0.07,0.409-0.168,0.579-0.293c0.15-0.117,0.282-0.254,0.394-0.41
			c0.137-0.188,0.259-0.421,0.363-0.702c0.104-0.266,0.184-0.608,0.235-1.03c0.06-0.43,0.138-1.405,0.236-2.927
			c0.085-1.296,0.151-2.482,0.197-3.56c0.039-1.046,0.075-1.569,0.107-1.569c0.99,0,1.771,0,2.341,0h1.996l-0.479,6.981
			c-0.006,0.131-0.01,0.239-0.01,0.324c-0.026,1.364-0.109,2.326-0.251,2.887c-0.141,0.561-0.375,1.047-0.703,1.46
			s-0.807,0.785-1.436,1.116c-0.63,0.331-1.345,0.565-2.145,0.703s-1.609,0.206-2.43,0.206c-0.734,0-1.442-0.053-2.124-0.157
			c-0.63-0.104-1.197-0.257-1.702-0.457s-0.944-0.435-1.317-0.703c-0.342-0.249-0.604-0.503-0.787-0.763
			c-0.184-0.259-0.328-0.568-0.433-0.929c-0.118-0.406-0.178-0.843-0.178-1.308c0-0.157,0.007-0.396,0.021-0.713
			c0.013-0.318,0.042-0.775,0.089-1.372l0.128-1.573c0.033-0.413,0.069-1.02,0.108-1.819L31.313,76.544z"/>
		<path fill="#FFFFFF" d="M46.356,89.966c0.125-1.153,0.224-2.192,0.296-3.117c0.072-0.924,0.135-1.996,0.188-3.215
			c0.052-1.22,0.092-2.506,0.118-3.859s0.039-2.431,0.039-3.23c0.819,0.02,1.481,0.029,1.986,0.029c0.524,0,1.163-0.015,1.917-0.044
			s1.487-0.044,2.202-0.044c0.839,0,1.586,0.032,2.241,0.098c0.492,0.046,0.939,0.142,1.343,0.285
			c0.402,0.145,0.742,0.32,1.018,0.526c0.274,0.206,0.504,0.438,0.688,0.693s0.326,0.556,0.428,0.899
			c0.102,0.345,0.152,0.713,0.152,1.106c0,0.439-0.056,0.851-0.167,1.234c-0.111,0.383-0.287,0.744-0.526,1.081
			c-0.239,0.338-0.54,0.63-0.904,0.875c-0.363,0.246-0.873,0.497-1.529,0.753l0.512,1.248c0.145,0.348,0.298,0.702,0.462,1.063
			l1.317,2.881c0.06,0.125,0.164,0.37,0.315,0.737c-1.081-0.013-1.809-0.02-2.182-0.02c-0.472,0-1.245,0.007-2.319,0.02
			c-0.104-0.341-0.295-0.974-0.57-1.897c-0.112-0.387-0.207-0.685-0.286-0.895c-0.157-0.466-0.391-1.118-0.699-1.957l-1.014-2.783
			c0.354,0.066,0.701,0.099,1.042,0.099c0.479,0,0.913-0.072,1.303-0.216c0.391-0.145,0.686-0.367,0.886-0.669
			c0.199-0.302,0.3-0.619,0.3-0.954c0-0.281-0.075-0.529-0.227-0.742c-0.15-0.213-0.389-0.372-0.713-0.477
			c-0.324-0.105-0.824-0.157-1.499-0.157c-0.229,0-0.468,0.005-0.713,0.015c-0.246,0.01-0.533,0.018-0.86,0.024
			c-0.084,1.344-0.159,2.982-0.224,4.916c-0.064,1.935-0.106,3.832-0.126,5.693c-1.096-0.013-1.808-0.02-2.136-0.02
			C48.033,89.946,47.348,89.953,46.356,89.966z"/>
		<path fill="#FFFFFF" d="M60.525,89.966c0.378-5.264,0.567-9.314,0.567-12.153l-0.011-1.269c1.148,0.014,1.916,0.02,2.304,0.02
			c0.177,0,0.882-0.006,2.115-0.02c-0.118,1.475-0.214,2.871-0.286,4.188c-0.092,1.836-0.158,3.552-0.197,5.148
			c-0.04,1.596-0.06,2.958-0.06,4.085l-2.015-0.02C62.55,89.946,61.744,89.953,60.525,89.966z"/>
		<path fill="#FFFFFF" d="M67.251,89.76c-0.085-1.396-0.184-2.514-0.295-3.354c0.735,0.328,1.391,0.556,1.965,0.684
			c0.575,0.128,1.079,0.191,1.513,0.191c0.571,0,1.026-0.083,1.364-0.25c0.338-0.168,0.508-0.415,0.508-0.743
			c0-0.111-0.017-0.218-0.05-0.319s-0.096-0.216-0.188-0.344s-0.223-0.268-0.394-0.418l-1.853-1.612
			c-0.434-0.367-0.735-0.633-0.906-0.797c-0.349-0.334-0.619-0.646-0.813-0.935c-0.193-0.288-0.335-0.581-0.424-0.88
			c-0.089-0.298-0.133-0.614-0.133-0.948c0-0.4,0.07-0.792,0.212-1.176c0.141-0.383,0.352-0.742,0.634-1.076
			c0.282-0.335,0.655-0.623,1.121-0.865c0.465-0.243,0.964-0.408,1.494-0.497c0.531-0.088,1.079-0.133,1.643-0.133
			c1.107,0,2.313,0.128,3.618,0.384c0.02,0.452,0.043,0.867,0.069,1.244s0.088,1.037,0.187,1.981
			c-0.604-0.243-1.153-0.412-1.651-0.507c-0.499-0.095-0.928-0.143-1.288-0.143c-0.512,0-0.937,0.095-1.273,0.285
			c-0.338,0.19-0.507,0.426-0.507,0.708c0,0.131,0.026,0.259,0.079,0.384c0.052,0.124,0.15,0.271,0.295,0.438
			c0.144,0.167,0.334,0.351,0.57,0.551c0.235,0.199,0.605,0.496,1.11,0.89l0.708,0.561c0.21,0.17,0.437,0.377,0.679,0.619
			c0.242,0.243,0.452,0.482,0.63,0.718c0.177,0.236,0.313,0.452,0.407,0.649c0.096,0.196,0.166,0.395,0.212,0.595
			s0.068,0.415,0.068,0.644c0,0.591-0.141,1.152-0.423,1.687c-0.281,0.534-0.682,0.974-1.199,1.318
			c-0.518,0.344-1.087,0.585-1.706,0.723s-1.273,0.206-1.962,0.206C70.211,90.222,68.87,90.067,67.251,89.76z"/>
	</g>
</g>
</svg>
