<?xml version="1.0" encoding="utf-8"?>
<!-- Generator: Adobe Illustrator 15.1.0, SVG Export Plug-In . SVG Version: 6.00 Build 0)  -->
<!DOCTYPE svg PUBLIC "-//W3C//DTD SVG 1.1//EN" "http://www.w3.org/Graphics/SVG/1.1/DTD/svg11.dtd">
<svg version="1.1" id="レイヤー_1" xmlns="http://www.w3.org/2000/svg" xmlns:xlink="http://www.w3.org/1999/xlink" x="0px"
	 y="0px" width="60px" height="60px" viewBox="0 0 60 60" enable-background="new 0 0 60 60" xml:space="preserve">
<g>
	<path fill="#FFFFFF" d="M29.6,3.631c0.22-1.997,0.581-1.997,0.801,0l2.178,19.758c0.221,1.997,2.034,3.812,4.032,4.032L56.368,29.6
		c1.998,0.22,1.998,0.581,0,0.801L36.61,32.578c-1.998,0.221-3.812,2.034-4.032,4.032L30.4,56.368c-0.22,1.998-0.581,1.998-0.801,0
		L27.421,36.61c-0.22-1.998-2.035-3.812-4.032-4.032L3.631,30.4c-1.997-0.22-1.997-0.581,0-0.801l19.758-2.179
		c1.997-0.22,3.812-2.035,4.032-4.032L29.6,3.631z"/>
</g>
</svg>
